<?xml version="1.0" encoding="utf-8"?>
<!-- Generator: Adobe Illustrator 24.0.1, SVG Export Plug-In . SVG Version: 6.00 Build 0)  -->
<svg version="1.1" id="Layer_1" xmlns="http://www.w3.org/2000/svg" xmlns:xlink="http://www.w3.org/1999/xlink" x="0px" y="0px"
	 viewBox="0 0 1366 768" style="enable-background:new 0 0 1366 768;" xml:space="preserve">
<style type="text/css">
	.st0{fill:#09253C;}
	.st1{fill:#FFFFFF;}
	.st2{fill:#081F33;}
</style>
<g>
	<path class="st0" d="M0.5,767.5c0-22.97,0-745.35,0.01-767l754.99,0c0.51,59.06,0.34,119.11,0.17,177.2
		c-0.08,29.03-0.17,59.05-0.17,88.57v311.91l0,61.78c0,41.19,0.01,82.38,0,123.57c0,0,0,3.02,0,3.97H0.5z"/>
	<path d="M755,1c0.51,58.9,0.34,118.78,0.17,176.71c-0.08,29.03-0.17,59.04-0.17,88.56v311.91c0,20.59,0,41.19,0,61.78
		c0,41.19,0.01,82.38,0,123.57l0,0.25c0,1.58,0,2.58,0,3.21H1C1,735.91,1,31.18,1.01,1h94.83h218.67h243.58h170.57l8.14,0l8.14,0
		L755,1 M755.99,0c-3.68,0-7.36,0-11.05,0c-5.43,0-10.86,0-16.29,0C671.8,0,614.95,0,558.09,0C476.9,0,395.7,0,314.51,0
		C241.62,0,168.73,0,95.84,0C63.9,0,31.95,0,0.01,0C0,0,0,768,0,768s754.63,0,756,0c0,0,0-4.25,0-4.47c0.02-61.78,0-123.57,0-185.35
		c0-103.97,0-207.94,0-311.91C756,177.52,756.77,88.73,755.99,0L755.99,0z"/>
</g>
<g>
	<rect x="1112.5" y="0.5" class="st1" width="253" height="767"/>
	<path d="M1365,1v766h-252V1H1365 M1366,0h-254v768h254V0L1366,0z"/>
</g>
<g>
	<rect x="756.5" y="0.5" class="st2" width="355" height="767"/>
	<path d="M1111,1v766H757V1H1111 M1112,0H756v768h356V0L1112,0z"/>
</g>
<g>
	<rect x="1112.5" y="0.5" class="st0" width="257" height="767"/>
	<path d="M1369,1v766h-256V1H1369 M1370,0h-258v768h258V0L1370,0z"/>
</g>
</svg>
